<svg width="87" height="54" fill="none" xmlns="http://www.w3.org/2000/svg"><path fill="#F2F2F2" d="M0 0h87v54H0z"/><path fill="#C5E4E7" d="M-677-163H763V861H-677z"/><path fill-rule="evenodd" clip-rule="evenodd" d="M9.264 17.112c-.752.24-1.6.36-2.544.36-1.104 0-2.076-.156-2.916-.468-.84-.312-1.54-.744-2.1-1.296a5.47 5.47 0 0 1-1.272-1.944A6.692 6.692 0 0 1 0 11.328v-.72h3.168v.576c0 1.008.292 1.812.876 2.412.584.6 1.492.9 2.724.9.96 0 1.672-.208 2.136-.624.464-.416.696-.912.696-1.488 0-.272-.048-.532-.144-.78a1.657 1.657 0 0 0-.504-.672c-.24-.2-.568-.38-.984-.54-.416-.16-.944-.296-1.584-.408a16.014 16.014 0 0 1-2.328-.564 6.478 6.478 0 0 1-1.836-.924 3.978 3.978 0 0 1-1.212-1.44C.72 6.48.576 5.776.576 4.944V4.8c0-.688.14-1.324.42-1.908a4.622 4.622 0 0 1 1.176-1.524C2.676.936 3.284.6 3.996.36S5.504 0 6.384 0c.992 0 1.872.14 2.64.42.768.28 1.412.66 1.932 1.14.52.48.912 1.032 1.176 1.656a5 5 0 0 1 .396 1.968v.864H9.36v-.576c0-.672-.26-1.256-.78-1.752s-1.252-.744-2.196-.744c-.8 0-1.432.164-1.896.492-.464.328-.696.772-.696 1.332 0 .288.056.548.168.78.112.232.308.44.588.624.28.184.648.348 1.104.492.456.144 1.036.28 1.74.408 1.76.32 3.104.856 4.032 1.608.928.752 1.392 1.864 1.392 3.336v.288c0 .784-.14 1.492-.42 2.124a4.476 4.476 0 0 1-1.212 1.62c-.528.448-1.168.792-1.92 1.032ZM28.72 10.8v6.336h-3.168V.336h6.576c.864 0 1.616.14 2.256.42.64.28 1.172.648 1.596 1.104.424.456.744.976.96 1.56.216.584.324 1.18.324 1.788v.576c0 .624-.108 1.236-.324 1.836a4.833 4.833 0 0 1-.96 1.608 4.707 4.707 0 0 1-1.596 1.14c-.64.288-1.392.432-2.256.432H28.72Zm3.096-3.024H28.72V3.36h3.096c.704 0 1.26.192 1.668.576.408.384.612.88.612 1.488v.288c0 .608-.204 1.104-.612 1.488-.408.384-.964.576-1.668.576Zm29.464 6.336v3.024h-10.8V.336h3.168v13.776h7.632Zm24.88 3.024v-3.024h-4.032V3.36h4.032V.336H74.928V3.36h4.032v10.752h-4.032v3.024H86.16ZM8.064 39.36v13.776H4.896V39.36H.432v-3.024h12.096v3.024H8.064Zm24.688 13.776V39.36h4.464v-3.024H25.12v3.024h4.464v13.776h3.168Zm28.624-3.024v3.024H50.48v-16.8h10.608v3.024h-7.44v3.84H60.8v3.024h-7.152v3.888h7.728Zm16.744 3.024V46.8h3.648c.464 0 .796.12.996.36.2.24.3.552.3.936v5.04h3.168v-5.808c0-.56-.164-1.024-.492-1.392-.328-.368-.772-.584-1.332-.648v-.432c.768-.32 1.336-.78 1.704-1.38a3.63 3.63 0 0 0 .552-1.932v-.576c0-.64-.116-1.24-.348-1.8a4.332 4.332 0 0 0-1.008-1.476c-.44-.424-.988-.756-1.644-.996-.656-.24-1.416-.36-2.28-.36h-6.432v16.8h3.168Zm0-9.36h3.024c.768 0 1.352-.18 1.752-.54.4-.36.6-.868.6-1.524v-.288c0-.56-.2-1.044-.6-1.452-.4-.408-.984-.612-1.752-.612H78.12v4.416Z" fill="#3D6666"/></svg>